<mxfile host="app.diagrams.net" agent="Mozilla/5.0 (Macintosh; Intel Mac OS X 10_15_7) AppleWebKit/537.36 (KHTML, like Gecko) Chrome/124.0.0.0 Safari/537.36" version="24.9.1">
  <diagram name="Page-1" id="UhgfAmiIQJqqi2EKyEUl">
    <mxGraphModel dx="1434" dy="682" grid="1" gridSize="10" guides="1" tooltips="1" connect="1" arrows="1" fold="1" page="1" pageScale="1" pageWidth="850" pageHeight="1100" math="0" shadow="0">
      <root>
        <mxCell id="0" />
        <mxCell id="1" parent="0" />
        <mxCell id="BiCm1cUt7FBWLKJrPkOS-1" value="" style="rounded=1;whiteSpace=wrap;html=1;fillColor=#f5f5f5;fontColor=#333333;strokeColor=#666666;" vertex="1" parent="1">
          <mxGeometry x="110" y="210" width="240" height="380" as="geometry" />
        </mxCell>
        <mxCell id="BiCm1cUt7FBWLKJrPkOS-17" style="edgeStyle=orthogonalEdgeStyle;rounded=0;orthogonalLoop=1;jettySize=auto;html=1;entryX=0.5;entryY=0;entryDx=0;entryDy=0;dashed=1;" edge="1" parent="1" source="BiCm1cUt7FBWLKJrPkOS-2" target="BiCm1cUt7FBWLKJrPkOS-12">
          <mxGeometry relative="1" as="geometry" />
        </mxCell>
        <mxCell id="BiCm1cUt7FBWLKJrPkOS-2" value="HC Home" style="rounded=1;whiteSpace=wrap;html=1;fillColor=#dae8fc;strokeColor=#6c8ebf;dashed=1;" vertex="1" parent="1">
          <mxGeometry x="160" y="270" width="140" height="60" as="geometry" />
        </mxCell>
        <mxCell id="BiCm1cUt7FBWLKJrPkOS-3" value="HC IO" style="rounded=1;whiteSpace=wrap;html=1;fillColor=#dae8fc;strokeColor=#6c8ebf;" vertex="1" parent="1">
          <mxGeometry x="160" y="340" width="140" height="60" as="geometry" />
        </mxCell>
        <mxCell id="BiCm1cUt7FBWLKJrPkOS-4" value="HC SEND" style="rounded=1;whiteSpace=wrap;html=1;fillColor=#dae8fc;strokeColor=#6c8ebf;gradientColor=none;dashed=1;" vertex="1" parent="1">
          <mxGeometry x="160" y="410" width="140" height="60" as="geometry" />
        </mxCell>
        <mxCell id="BiCm1cUt7FBWLKJrPkOS-15" style="edgeStyle=orthogonalEdgeStyle;rounded=0;orthogonalLoop=1;jettySize=auto;html=1;entryX=0.5;entryY=1;entryDx=0;entryDy=0;" edge="1" parent="1" source="BiCm1cUt7FBWLKJrPkOS-5" target="BiCm1cUt7FBWLKJrPkOS-12">
          <mxGeometry relative="1" as="geometry" />
        </mxCell>
        <mxCell id="BiCm1cUt7FBWLKJrPkOS-31" value="Modified" style="edgeLabel;html=1;align=center;verticalAlign=middle;resizable=0;points=[];" vertex="1" connectable="0" parent="BiCm1cUt7FBWLKJrPkOS-15">
          <mxGeometry x="-0.3079" y="1" relative="1" as="geometry">
            <mxPoint as="offset" />
          </mxGeometry>
        </mxCell>
        <mxCell id="BiCm1cUt7FBWLKJrPkOS-5" value="HC pagopa" style="rounded=1;whiteSpace=wrap;html=1;fillColor=#dae8fc;strokeColor=#6c8ebf;" vertex="1" parent="1">
          <mxGeometry x="160" y="480" width="140" height="60" as="geometry" />
        </mxCell>
        <mxCell id="BiCm1cUt7FBWLKJrPkOS-6" value="&lt;b&gt;Git Repository&lt;/b&gt;" style="text;html=1;align=center;verticalAlign=middle;whiteSpace=wrap;rounded=0;" vertex="1" parent="1">
          <mxGeometry x="175" y="220" width="110" height="30" as="geometry" />
        </mxCell>
        <mxCell id="BiCm1cUt7FBWLKJrPkOS-7" value="" style="sketch=0;outlineConnect=0;fontColor=#232F3E;gradientColor=none;fillColor=#232F3D;strokeColor=none;dashed=0;verticalLabelPosition=bottom;verticalAlign=top;align=center;html=1;fontSize=12;fontStyle=0;aspect=fixed;pointerEvents=1;shape=mxgraph.aws4.source_code;" vertex="1" parent="1">
          <mxGeometry x="167.69" y="280" width="14.62" height="20" as="geometry" />
        </mxCell>
        <mxCell id="BiCm1cUt7FBWLKJrPkOS-8" value="" style="sketch=0;outlineConnect=0;fontColor=#232F3E;gradientColor=none;fillColor=#232F3D;strokeColor=none;dashed=0;verticalLabelPosition=bottom;verticalAlign=top;align=center;html=1;fontSize=12;fontStyle=0;aspect=fixed;pointerEvents=1;shape=mxgraph.aws4.source_code;" vertex="1" parent="1">
          <mxGeometry x="167.69" y="350" width="14.62" height="20" as="geometry" />
        </mxCell>
        <mxCell id="BiCm1cUt7FBWLKJrPkOS-9" value="" style="sketch=0;outlineConnect=0;fontColor=#232F3E;gradientColor=none;fillColor=#232F3D;strokeColor=none;dashed=0;verticalLabelPosition=bottom;verticalAlign=top;align=center;html=1;fontSize=12;fontStyle=0;aspect=fixed;pointerEvents=1;shape=mxgraph.aws4.source_code;" vertex="1" parent="1">
          <mxGeometry x="167.69" y="420" width="14.62" height="20" as="geometry" />
        </mxCell>
        <mxCell id="BiCm1cUt7FBWLKJrPkOS-10" value="" style="sketch=0;outlineConnect=0;fontColor=#232F3E;gradientColor=none;fillColor=#232F3D;strokeColor=none;dashed=0;verticalLabelPosition=bottom;verticalAlign=top;align=center;html=1;fontSize=12;fontStyle=0;aspect=fixed;pointerEvents=1;shape=mxgraph.aws4.source_code;" vertex="1" parent="1">
          <mxGeometry x="167.69" y="490" width="14.62" height="20" as="geometry" />
        </mxCell>
        <mxCell id="BiCm1cUt7FBWLKJrPkOS-11" value="" style="dashed=0;outlineConnect=0;html=1;align=center;labelPosition=center;verticalLabelPosition=bottom;verticalAlign=top;shape=mxgraph.weblogos.github" vertex="1" parent="1">
          <mxGeometry x="162.31" y="225" width="20" height="20" as="geometry" />
        </mxCell>
        <mxCell id="BiCm1cUt7FBWLKJrPkOS-21" style="edgeStyle=orthogonalEdgeStyle;rounded=0;orthogonalLoop=1;jettySize=auto;html=1;entryX=0;entryY=0.5;entryDx=0;entryDy=0;exitX=1;exitY=0.5;exitDx=0;exitDy=0;" edge="1" parent="1" source="BiCm1cUt7FBWLKJrPkOS-12" target="BiCm1cUt7FBWLKJrPkOS-22">
          <mxGeometry relative="1" as="geometry">
            <mxPoint x="720" y="399.9949999999999" as="targetPoint" />
            <Array as="points">
              <mxPoint x="680" y="400" />
              <mxPoint x="680" y="490" />
            </Array>
          </mxGeometry>
        </mxCell>
        <mxCell id="BiCm1cUt7FBWLKJrPkOS-39" style="edgeStyle=orthogonalEdgeStyle;rounded=0;orthogonalLoop=1;jettySize=auto;html=1;exitX=1;exitY=0.5;exitDx=0;exitDy=0;entryX=0;entryY=0.5;entryDx=0;entryDy=0;" edge="1" parent="1" source="BiCm1cUt7FBWLKJrPkOS-12" target="BiCm1cUt7FBWLKJrPkOS-41">
          <mxGeometry relative="1" as="geometry">
            <mxPoint x="700" y="220" as="targetPoint" />
            <Array as="points">
              <mxPoint x="680" y="400" />
              <mxPoint x="680" y="240" />
            </Array>
          </mxGeometry>
        </mxCell>
        <mxCell id="BiCm1cUt7FBWLKJrPkOS-12" value="" style="ellipse;whiteSpace=wrap;html=1;aspect=fixed;fillColor=#ffe6cc;strokeColor=#d79b00;" vertex="1" parent="1">
          <mxGeometry x="481.88" y="319.37" width="161.25" height="161.25" as="geometry" />
        </mxCell>
        <mxCell id="BiCm1cUt7FBWLKJrPkOS-13" value="&lt;b&gt;Github&amp;nbsp;&lt;/b&gt;&lt;div&gt;&lt;b&gt;Actions&lt;/b&gt;&lt;/div&gt;" style="text;html=1;align=center;verticalAlign=middle;whiteSpace=wrap;rounded=0;" vertex="1" parent="1">
          <mxGeometry x="517.5" y="340" width="90" height="30" as="geometry" />
        </mxCell>
        <mxCell id="BiCm1cUt7FBWLKJrPkOS-14" style="edgeStyle=orthogonalEdgeStyle;rounded=0;orthogonalLoop=1;jettySize=auto;html=1;entryX=0.069;entryY=0.748;entryDx=0;entryDy=0;entryPerimeter=0;dashed=1;" edge="1" parent="1" source="BiCm1cUt7FBWLKJrPkOS-4" target="BiCm1cUt7FBWLKJrPkOS-12">
          <mxGeometry relative="1" as="geometry" />
        </mxCell>
        <mxCell id="BiCm1cUt7FBWLKJrPkOS-16" style="edgeStyle=orthogonalEdgeStyle;rounded=0;orthogonalLoop=1;jettySize=auto;html=1;" edge="1" parent="1" source="BiCm1cUt7FBWLKJrPkOS-3">
          <mxGeometry relative="1" as="geometry">
            <mxPoint x="490" y="370" as="targetPoint" />
          </mxGeometry>
        </mxCell>
        <mxCell id="BiCm1cUt7FBWLKJrPkOS-30" value="Modified" style="edgeLabel;html=1;align=center;verticalAlign=middle;resizable=0;points=[];" vertex="1" connectable="0" parent="BiCm1cUt7FBWLKJrPkOS-16">
          <mxGeometry x="-0.0131" y="2" relative="1" as="geometry">
            <mxPoint x="6" y="2" as="offset" />
          </mxGeometry>
        </mxCell>
        <mxCell id="BiCm1cUt7FBWLKJrPkOS-18" value="Checks" style="text;html=1;align=center;verticalAlign=middle;whiteSpace=wrap;rounded=0;fontStyle=0" vertex="1" parent="1">
          <mxGeometry x="532.5" y="378.01" width="60" height="30" as="geometry" />
        </mxCell>
        <mxCell id="BiCm1cUt7FBWLKJrPkOS-19" value="Deploy" style="text;html=1;align=center;verticalAlign=middle;whiteSpace=wrap;rounded=0;fontStyle=0" vertex="1" parent="1">
          <mxGeometry x="532.5" y="398.01" width="60" height="30" as="geometry" />
        </mxCell>
        <mxCell id="BiCm1cUt7FBWLKJrPkOS-20" value="Release" style="text;html=1;align=center;verticalAlign=middle;whiteSpace=wrap;rounded=0;fontStyle=0" vertex="1" parent="1">
          <mxGeometry x="532.51" y="418.01" width="60" height="30" as="geometry" />
        </mxCell>
        <mxCell id="BiCm1cUt7FBWLKJrPkOS-22" value="" style="rounded=1;whiteSpace=wrap;html=1;fillColor=#d5e8d4;strokeColor=#82b366;dashed=1;" vertex="1" parent="1">
          <mxGeometry x="730" y="330" width="240" height="320" as="geometry" />
        </mxCell>
        <mxCell id="BiCm1cUt7FBWLKJrPkOS-23" value="Zendesk&amp;nbsp;&lt;div&gt;Help Center&lt;/div&gt;" style="text;html=1;align=center;verticalAlign=middle;whiteSpace=wrap;rounded=0;" vertex="1" parent="1">
          <mxGeometry x="807.5" y="350" width="85" height="30" as="geometry" />
        </mxCell>
        <mxCell id="BiCm1cUt7FBWLKJrPkOS-24" value="HC&amp;nbsp;&lt;div&gt;&lt;span style=&quot;background-color: initial;&quot;&gt;Home&lt;/span&gt;&lt;/div&gt;" style="rounded=1;whiteSpace=wrap;html=1;fillColor=#dae8fc;strokeColor=#6c8ebf;dashed=1;" vertex="1" parent="1">
          <mxGeometry x="870" y="420" width="65" height="60" as="geometry" />
        </mxCell>
        <mxCell id="BiCm1cUt7FBWLKJrPkOS-25" value="HC&amp;nbsp;&lt;div&gt;SEND&lt;/div&gt;" style="rounded=1;whiteSpace=wrap;html=1;fillColor=#dae8fc;strokeColor=#6c8ebf;gradientColor=none;dashed=1;" vertex="1" parent="1">
          <mxGeometry x="871.25" y="519.38" width="62.5" height="60.62" as="geometry" />
        </mxCell>
        <mxCell id="BiCm1cUt7FBWLKJrPkOS-26" value="HC pagopa" style="rounded=1;whiteSpace=wrap;html=1;fillColor=#dae8fc;strokeColor=#6c8ebf;" vertex="1" parent="1">
          <mxGeometry x="770" y="519.38" width="60" height="60.62" as="geometry" />
        </mxCell>
        <mxCell id="BiCm1cUt7FBWLKJrPkOS-27" value="HC&amp;nbsp;&lt;div&gt;&lt;span style=&quot;background-color: initial;&quot;&gt;IO&lt;/span&gt;&lt;/div&gt;" style="rounded=1;whiteSpace=wrap;html=1;fillColor=#dae8fc;strokeColor=#6c8ebf;" vertex="1" parent="1">
          <mxGeometry x="770" y="420" width="60" height="60" as="geometry" />
        </mxCell>
        <mxCell id="BiCm1cUt7FBWLKJrPkOS-32" value="" style="endArrow=open;html=1;rounded=0;entryX=0;entryY=0.5;entryDx=0;entryDy=0;exitX=0.087;exitY=0.375;exitDx=0;exitDy=0;exitPerimeter=0;endFill=0;" edge="1" parent="1" source="BiCm1cUt7FBWLKJrPkOS-22" target="BiCm1cUt7FBWLKJrPkOS-27">
          <mxGeometry width="50" height="50" relative="1" as="geometry">
            <mxPoint x="690" y="569.38" as="sourcePoint" />
            <mxPoint x="740" y="519.38" as="targetPoint" />
          </mxGeometry>
        </mxCell>
        <mxCell id="BiCm1cUt7FBWLKJrPkOS-33" value="" style="endArrow=open;html=1;rounded=0;entryX=0;entryY=0.5;entryDx=0;entryDy=0;endFill=0;" edge="1" parent="1" target="BiCm1cUt7FBWLKJrPkOS-26">
          <mxGeometry width="50" height="50" relative="1" as="geometry">
            <mxPoint x="750" y="550" as="sourcePoint" />
            <mxPoint x="770" y="549.19" as="targetPoint" />
          </mxGeometry>
        </mxCell>
        <mxCell id="BiCm1cUt7FBWLKJrPkOS-34" value="" style="sketch=0;outlineConnect=0;fontColor=#232F3E;gradientColor=none;fillColor=#232F3D;strokeColor=none;dashed=0;verticalLabelPosition=bottom;verticalAlign=top;align=center;html=1;fontSize=12;fontStyle=0;aspect=fixed;pointerEvents=1;shape=mxgraph.aws4.git_repository;" vertex="1" parent="1">
          <mxGeometry x="517.5" y="345" width="15.38" height="20" as="geometry" />
        </mxCell>
        <mxCell id="BiCm1cUt7FBWLKJrPkOS-38" value="" style="shape=image;verticalLabelPosition=bottom;labelBackgroundColor=default;verticalAlign=top;aspect=fixed;imageAspect=0;image=https://cdn.icon-icons.com/icons2/2429/PNG/512/zendesk_logo_icon_147198.png;" vertex="1" parent="1">
          <mxGeometry x="781.49" y="352" width="26.01" height="26.01" as="geometry" />
        </mxCell>
        <mxCell id="BiCm1cUt7FBWLKJrPkOS-41" value="Release" style="rounded=1;whiteSpace=wrap;html=1;fillColor=#f5f5f5;fontColor=#333333;strokeColor=#666666;" vertex="1" parent="1">
          <mxGeometry x="795" y="190" width="110" height="100" as="geometry" />
        </mxCell>
        <mxCell id="BiCm1cUt7FBWLKJrPkOS-36" value="" style="verticalLabelPosition=bottom;html=1;verticalAlign=top;align=center;strokeColor=none;fillColor=#00BEF2;shape=mxgraph.azure.cloud_service_package_file;" vertex="1" parent="1">
          <mxGeometry x="802.5" y="200" width="17.5" height="20" as="geometry" />
        </mxCell>
        <mxCell id="BiCm1cUt7FBWLKJrPkOS-43" style="edgeStyle=orthogonalEdgeStyle;rounded=0;orthogonalLoop=1;jettySize=auto;html=1;entryX=0;entryY=0.5;entryDx=0;entryDy=0;" edge="1" parent="1" source="BiCm1cUt7FBWLKJrPkOS-42" target="BiCm1cUt7FBWLKJrPkOS-1">
          <mxGeometry relative="1" as="geometry" />
        </mxCell>
        <mxCell id="BiCm1cUt7FBWLKJrPkOS-42" value="" style="sketch=0;outlineConnect=0;fontColor=#232F3E;gradientColor=none;fillColor=#232F3D;strokeColor=none;dashed=0;verticalLabelPosition=bottom;verticalAlign=top;align=center;html=1;fontSize=12;fontStyle=0;aspect=fixed;pointerEvents=1;shape=mxgraph.aws4.user;" vertex="1" parent="1">
          <mxGeometry x="40" y="386.24" width="27.5" height="27.5" as="geometry" />
        </mxCell>
        <mxCell id="BiCm1cUt7FBWLKJrPkOS-49" value="" style="verticalLabelPosition=bottom;html=1;verticalAlign=top;align=center;strokeColor=none;fillColor=#00BEF2;shape=mxgraph.azure.azure_website;pointerEvents=1;" vertex="1" parent="1">
          <mxGeometry x="1043.7200000000003" y="440" width="21.75" height="20" as="geometry" />
        </mxCell>
        <mxCell id="BiCm1cUt7FBWLKJrPkOS-61" style="edgeStyle=orthogonalEdgeStyle;rounded=0;orthogonalLoop=1;jettySize=auto;html=1;entryX=1;entryY=0.5;entryDx=0;entryDy=0;" edge="1" parent="1" source="BiCm1cUt7FBWLKJrPkOS-58" target="BiCm1cUt7FBWLKJrPkOS-22">
          <mxGeometry relative="1" as="geometry" />
        </mxCell>
        <mxCell id="BiCm1cUt7FBWLKJrPkOS-58" value="" style="sketch=0;outlineConnect=0;fontColor=#232F3E;gradientColor=none;fillColor=#232F3D;strokeColor=none;dashed=0;verticalLabelPosition=bottom;verticalAlign=top;align=center;html=1;fontSize=12;fontStyle=0;aspect=fixed;pointerEvents=1;shape=mxgraph.aws4.users;" vertex="1" parent="1">
          <mxGeometry x="1027.44" y="462.84" width="54.31" height="54.31" as="geometry" />
        </mxCell>
        <mxCell id="BiCm1cUt7FBWLKJrPkOS-70" value="&lt;font color=&quot;#808080&quot;&gt;* &lt;font style=&quot;font-size: 11px;&quot;&gt;each Help Center is&amp;nbsp;&lt;/font&gt;&lt;/font&gt;&lt;div&gt;&lt;font color=&quot;#808080&quot; style=&quot;font-size: 11px;&quot;&gt;an independent website&lt;/font&gt;&lt;/div&gt;" style="text;html=1;align=center;verticalAlign=middle;resizable=0;points=[];autosize=1;strokeColor=none;fillColor=none;" vertex="1" parent="1">
          <mxGeometry x="780" y="610" width="140" height="40" as="geometry" />
        </mxCell>
      </root>
    </mxGraphModel>
  </diagram>
</mxfile>
